# Blender v2.79 (sub 0) OBJ File: ''
# www.blender.org
mtllib BULLET.mtl
o Sphere
v 0.000000 -0.000000 -1.000000
v -0.000000 1.000000 -0.000000
v 0.270598 0.923880 -0.270598
v 0.500000 0.707107 -0.500000
v 0.653281 0.382683 -0.653282
v 0.707107 -0.000000 -0.707107
v 0.653281 -0.382684 -0.653282
v 0.500000 -0.707107 -0.500000
v 0.270598 -0.923880 -0.270598
v 0.382683 0.923880 -0.000000
v 0.707107 0.707107 -0.000000
v 0.923879 0.382683 -0.000000
v 1.000000 -0.000000 -0.000000
v 0.923879 -0.382684 -0.000000
v 0.707107 -0.707107 -0.000000
v 0.382683 -0.923880 -0.000000
v 0.000000 -1.000000 -0.000000
v 0.270598 0.923880 0.270598
v 0.500000 0.707107 0.500000
v 0.653281 0.382683 0.653281
v 0.707107 -0.000000 0.707106
v 0.653281 -0.382684 0.653281
v 0.500000 -0.707107 0.500000
v 0.270598 -0.923880 0.270598
v 0.000000 0.923880 0.382683
v 0.000000 0.707107 0.707106
v 0.000000 0.382683 0.923879
v 0.000000 -0.000000 1.000000
v 0.000000 -0.382684 0.923879
v 0.000000 -0.707107 0.707106
v 0.000000 -0.923880 0.382683
v -0.270598 0.923880 0.270598
v -0.500000 0.707107 0.500000
v -0.653281 0.382683 0.653281
v -0.707107 -0.000000 0.707106
v -0.653281 -0.382684 0.653281
v -0.500000 -0.707107 0.500000
v -0.270598 -0.923880 0.270598
v -0.382683 0.923880 -0.000000
v -0.707107 0.707107 -0.000000
v -0.923879 0.382683 -0.000000
v -1.000000 -0.000000 -0.000000
v -0.923879 -0.382684 -0.000000
v -0.707107 -0.707107 -0.000000
v -0.382683 -0.923880 -0.000000
v -0.270598 0.923880 -0.270598
v -0.500000 0.707107 -0.500000
v -0.653281 0.382683 -0.653281
v -0.707107 -0.000000 -0.707107
v -0.653281 -0.382684 -0.653281
v -0.500000 -0.707107 -0.500000
v -0.270598 -0.923880 -0.270598
v -0.000000 0.923880 -0.382683
v -0.000000 0.707107 -0.707107
v -0.000000 0.382683 -0.923879
v -0.000000 -0.382684 -0.923879
v -0.000000 -0.707107 -0.707107
v -0.000000 -0.923880 -0.382683
vt 0.337951 0.000202
vt 0.357805 0.062176
vt 0.309091 0.058529
vt 0.373848 0.125244
vt 0.382897 0.189688
vt 0.265291 0.180884
vt 0.283836 0.118505
vt 0.382897 0.254765
vt 0.373208 0.319116
vt 0.255601 0.310312
vt 0.255601 0.245235
vt 0.354663 0.381495
vt 0.329408 0.441471
vt 0.280694 0.437824
vt 0.264651 0.374756
vt 0.300548 0.499798
vt 0.740904 0.062176
vt 0.756947 0.125244
vt 0.666935 0.118505
vt 0.692190 0.058529
vt 0.765997 0.189688
vt 0.765997 0.254765
vt 0.638700 0.245235
vt 0.648390 0.180884
vt 0.756307 0.319116
vt 0.737762 0.381495
vt 0.647750 0.374756
vt 0.638700 0.310312
vt 0.712507 0.441471
vt 0.683647 0.499798
vt 0.663793 0.437824
vt 0.721050 0.000202
vt 0.255198 0.189688
vt 0.255198 0.254765
vt 0.127902 0.245235
vt 0.137591 0.180884
vt 0.245508 0.319116
vt 0.226963 0.381495
vt 0.136951 0.374756
vt 0.127902 0.310312
vt 0.201708 0.441471
vt 0.172848 0.499798
vt 0.152994 0.437824
vt 0.210251 0.000202
vt 0.230105 0.062176
vt 0.181391 0.058529
vt 0.246148 0.125244
vt 0.156136 0.118505
vt 0.082552 0.000202
vt 0.102405 0.062176
vt 0.053691 0.058529
vt 0.118448 0.125244
vt 0.127498 0.189688
vt 0.009892 0.180884
vt 0.028436 0.118505
vt 0.127498 0.254765
vt 0.117808 0.319116
vt 0.000202 0.310311
vt 0.000202 0.245235
vt 0.099263 0.381495
vt 0.074008 0.441471
vt 0.025294 0.437824
vt 0.009251 0.374756
vt 0.045148 0.499798
vt 0.638297 0.254765
vt 0.628607 0.319116
vt 0.511001 0.310312
vt 0.511001 0.245235
vt 0.610063 0.381495
vt 0.584808 0.441471
vt 0.536094 0.437824
vt 0.520051 0.374756
vt 0.613204 0.062176
vt 0.629247 0.125244
vt 0.539235 0.118505
vt 0.564490 0.058529
vt 0.638297 0.189688
vt 0.520691 0.180884
vt 0.555947 0.499798
vt 0.593350 0.000202
vt 0.868603 0.062176
vt 0.884646 0.125244
vt 0.794634 0.118505
vt 0.819889 0.058529
vt 0.893696 0.189688
vt 0.893696 0.254765
vt 0.766400 0.245235
vt 0.776090 0.180884
vt 0.884007 0.319116
vt 0.865462 0.381495
vt 0.775450 0.374756
vt 0.766400 0.310312
vt 0.840207 0.441471
vt 0.811347 0.499798
vt 0.791493 0.437824
vt 0.848749 0.000202
vt 0.500907 0.319116
vt 0.482363 0.381495
vt 0.392351 0.374756
vt 0.383301 0.310312
vt 0.457108 0.441471
vt 0.428247 0.499798
vt 0.408394 0.437824
vt 0.465651 0.000202
vt 0.485505 0.062176
vt 0.436790 0.058529
vt 0.501547 0.125244
vt 0.510597 0.189688
vt 0.392991 0.180884
vt 0.411536 0.118505
vt 0.510597 0.254765
vt 0.383301 0.245235
vt 0.082551 0.500202
vt 0.102405 0.562176
vt 0.053691 0.558529
vt 0.118448 0.625244
vt 0.127498 0.689688
vt 0.009892 0.680884
vt 0.028436 0.618505
vt 0.127498 0.754765
vt 0.117808 0.819116
vt 0.000202 0.810312
vt 0.000202 0.745235
vt 0.099264 0.881495
vt 0.074009 0.941471
vt 0.025295 0.937824
vt 0.009252 0.874756
vt 0.045149 0.999798
vn 0.0805 -0.9776 -0.1945
vn 0.3256 -0.5253 -0.7862
vn 0.3764 0.1807 -0.9087
vn 0.2243 0.8103 -0.5414
vn 0.2243 -0.8103 -0.5414
vn 0.3764 -0.1807 -0.9087
vn 0.3256 0.5253 -0.7862
vn 0.0805 0.9776 -0.1945
vn 0.5414 -0.8103 -0.2243
vn 0.9087 -0.1807 -0.3764
vn 0.7862 0.5253 -0.3256
vn 0.1945 0.9776 -0.0805
vn 0.1945 -0.9776 -0.0805
vn 0.7862 -0.5253 -0.3256
vn 0.9087 0.1807 -0.3764
vn 0.5414 0.8103 -0.2243
vn 0.9087 -0.1807 0.3764
vn 0.7862 0.5253 0.3256
vn 0.1945 0.9776 0.0805
vn 0.1945 -0.9776 0.0805
vn 0.7862 -0.5253 0.3256
vn 0.9087 0.1807 0.3764
vn 0.5414 0.8103 0.2243
vn 0.5414 -0.8103 0.2243
vn 0.0805 -0.9776 0.1945
vn 0.3256 -0.5253 0.7862
vn 0.3764 0.1807 0.9087
vn 0.2243 0.8103 0.5414
vn 0.2243 -0.8103 0.5414
vn 0.3764 -0.1807 0.9087
vn 0.3256 0.5253 0.7862
vn 0.0805 0.9776 0.1945
vn -0.3764 0.1807 0.9087
vn -0.2243 0.8103 0.5414
vn -0.2243 -0.8103 0.5414
vn -0.3764 -0.1807 0.9087
vn -0.3256 0.5253 0.7862
vn -0.0805 0.9776 0.1945
vn -0.0805 -0.9776 0.1945
vn -0.3256 -0.5253 0.7862
vn -0.5414 -0.8103 0.2243
vn -0.9087 -0.1807 0.3764
vn -0.7862 0.5253 0.3256
vn -0.1945 0.9776 0.0805
vn -0.1945 -0.9776 0.0805
vn -0.7862 -0.5253 0.3256
vn -0.9087 0.1807 0.3764
vn -0.5414 0.8103 0.2243
vn -0.7862 0.5253 -0.3256
vn -0.1945 0.9776 -0.0805
vn -0.1945 -0.9776 -0.0805
vn -0.7862 -0.5253 -0.3256
vn -0.9087 0.1807 -0.3764
vn -0.5414 0.8103 -0.2243
vn -0.5414 -0.8103 -0.2243
vn -0.9087 -0.1807 -0.3764
vn -0.0805 -0.9776 -0.1945
vn -0.3256 -0.5253 -0.7862
vn -0.3764 0.1807 -0.9087
vn -0.2243 0.8103 -0.5414
vn -0.2243 -0.8103 -0.5414
vn -0.3764 -0.1807 -0.9087
vn -0.3256 0.5253 -0.7862
vn -0.0805 0.9776 -0.1945
usemtl None
s off
f 17/1/1 58/2/1 9/3/1
f 57/4/2 56/5/2 7/6/2 8/7/2
f 1/8/3 55/9/3 5/10/3 6/11/3
f 54/12/4 53/13/4 3/14/4 4/15/4
f 58/2/5 57/4/5 8/7/5 9/3/5
f 56/5/6 1/8/6 6/11/6 7/6/6
f 55/9/7 54/12/7 4/15/7 5/10/7
f 53/13/8 2/16/8 3/14/8
f 9/17/9 8/18/9 15/19/9 16/20/9
f 7/21/10 6/22/10 13/23/10 14/24/10
f 5/25/11 4/26/11 11/27/11 12/28/11
f 3/29/12 2/30/12 10/31/12
f 17/32/13 9/17/13 16/20/13
f 8/18/14 7/21/14 14/24/14 15/19/14
f 6/22/15 5/25/15 12/28/15 13/23/15
f 4/26/16 3/29/16 10/31/16 11/27/16
f 14/33/17 13/34/17 21/35/17 22/36/17
f 12/37/18 11/38/18 19/39/18 20/40/18
f 10/41/19 2/42/19 18/43/19
f 17/44/20 16/45/20 24/46/20
f 15/47/21 14/33/21 22/36/21 23/48/21
f 13/34/22 12/37/22 20/40/22 21/35/22
f 11/38/23 10/41/23 18/43/23 19/39/23
f 16/45/24 15/47/24 23/48/24 24/46/24
f 17/49/25 24/50/25 31/51/25
f 23/52/26 22/53/26 29/54/26 30/55/26
f 21/56/27 20/57/27 27/58/27 28/59/27
f 19/60/28 18/61/28 25/62/28 26/63/28
f 24/50/29 23/52/29 30/55/29 31/51/29
f 22/53/30 21/56/30 28/59/30 29/54/30
f 20/57/31 19/60/31 26/63/31 27/58/31
f 18/61/32 2/64/32 25/62/32
f 28/65/33 27/66/33 34/67/33 35/68/33
f 26/69/34 25/70/34 32/71/34 33/72/34
f 31/73/35 30/74/35 37/75/35 38/76/35
f 29/77/36 28/65/36 35/68/36 36/78/36
f 27/66/37 26/69/37 33/72/37 34/67/37
f 25/70/38 2/79/38 32/71/38
f 17/80/39 31/73/39 38/76/39
f 30/74/40 29/77/40 36/78/40 37/75/40
f 38/81/41 37/82/41 44/83/41 45/84/41
f 36/85/42 35/86/42 42/87/42 43/88/42
f 34/89/43 33/90/43 40/91/43 41/92/43
f 32/93/44 2/94/44 39/95/44
f 17/96/45 38/81/45 45/84/45
f 37/82/46 36/85/46 43/88/46 44/83/46
f 35/86/47 34/89/47 41/92/47 42/87/47
f 33/90/48 32/93/48 39/95/48 40/91/48
f 41/97/49 40/98/49 47/99/49 48/100/49
f 39/101/50 2/102/50 46/103/50
f 17/104/51 45/105/51 52/106/51
f 44/107/52 43/108/52 50/109/52 51/110/52
f 42/111/53 41/97/53 48/100/53 49/112/53
f 40/98/54 39/101/54 46/103/54 47/99/54
f 45/105/55 44/107/55 51/110/55 52/106/55
f 43/108/56 42/111/56 49/112/56 50/109/56
f 17/113/57 52/114/57 58/115/57
f 51/116/58 50/117/58 56/118/58 57/119/58
f 49/120/59 48/121/59 55/122/59 1/123/59
f 47/124/60 46/125/60 53/126/60 54/127/60
f 52/114/61 51/116/61 57/119/61 58/115/61
f 50/117/62 49/120/62 1/123/62 56/118/62
f 48/121/63 47/124/63 54/127/63 55/122/63
f 46/125/64 2/128/64 53/126/64
