# Blender v2.79 (sub 0) OBJ File: 'CHAIR.blend'
# www.blender.org
mtllib CHAIR.mtl
o Circle.003
v -0.030328 0.005812 -0.477079
v -0.034739 0.008809 -0.474871
v -0.036566 0.010050 -0.469539
v -0.034739 0.008809 -0.464207
v -0.030328 0.005812 -0.461998
v -0.025918 0.002816 -0.464207
v -0.024091 0.001575 -0.469539
v -0.025918 0.002816 -0.474871
v 0.445196 0.705749 -0.477079
v 0.440785 0.708745 -0.474871
v 0.438958 0.709987 -0.469539
v 0.440785 0.708745 -0.464207
v 0.445196 0.705749 -0.461998
v 0.449606 0.702753 -0.464207
v 0.451433 0.701512 -0.469539
v 0.449606 0.702753 -0.474871
v 0.301030 0.006769 -0.477079
v 0.295707 0.006461 -0.474871
v 0.293502 0.006333 -0.469539
v 0.295707 0.006461 -0.464207
v 0.301030 0.006769 -0.461998
v 0.306353 0.007077 -0.464207
v 0.308557 0.007205 -0.469539
v 0.306353 0.007077 -0.474871
v 0.275230 0.452308 -0.477079
v 0.269907 0.452000 -0.474871
v 0.267702 0.451872 -0.469539
v 0.269907 0.452000 -0.464207
v 0.275230 0.452308 -0.461998
v 0.280554 0.452616 -0.464207
v 0.282758 0.452744 -0.469539
v 0.280554 0.452616 -0.474871
v 0.301030 0.006769 -0.021690
v 0.295707 0.006461 -0.019481
v 0.293502 0.006333 -0.014149
v 0.295707 0.006461 -0.008817
v 0.301030 0.006769 -0.006609
v 0.306353 0.007077 -0.008817
v 0.308557 0.007205 -0.014149
v 0.306353 0.007077 -0.019481
v 0.275230 0.452308 -0.021690
v 0.269907 0.452000 -0.019481
v 0.267703 0.451872 -0.014149
v 0.269907 0.452000 -0.008817
v 0.275231 0.452308 -0.006609
v 0.280554 0.452616 -0.008817
v 0.282758 0.452744 -0.014149
v 0.280554 0.452616 -0.019481
v -0.030328 0.005812 -0.021690
v -0.034739 0.008808 -0.019481
v -0.036566 0.010050 -0.014149
v -0.034739 0.008808 -0.008817
v -0.030328 0.005812 -0.006609
v -0.025918 0.002816 -0.008817
v -0.024091 0.001575 -0.014149
v -0.025918 0.002816 -0.019481
v 0.445196 0.705749 -0.021690
v 0.440785 0.708745 -0.019481
v 0.438959 0.709987 -0.014149
v 0.440785 0.708745 -0.008817
v 0.445196 0.705749 -0.006609
v 0.449606 0.702753 -0.008817
v 0.451433 0.701512 -0.014149
v 0.449606 0.702753 -0.019481
v 0.358851 0.588291 -0.023816
v 0.448633 0.722281 -0.085960
v 0.433645 0.699912 -0.023816
v 0.358851 0.588291 -0.458204
v 0.433645 0.699912 -0.458204
v 0.448633 0.722281 -0.396060
v 0.374382 0.577884 -0.023816
v 0.449176 0.689505 -0.023816
v 0.464165 0.711874 -0.085960
v 0.374382 0.577884 -0.458204
v 0.464165 0.711874 -0.396060
v 0.449176 0.689505 -0.458204
v 0.444434 0.713441 -0.432194
v 0.459965 0.703034 -0.432194
v 0.445801 0.716312 -0.051172
v 0.461332 0.705904 -0.051172
v 0.051096 0.406393 -0.021418
v 0.003771 0.410079 -0.084248
v 0.334577 0.384309 -0.084248
v 0.287251 0.387996 -0.021418
v 0.003771 0.410079 -0.397772
v 0.051096 0.406393 -0.460602
v 0.287251 0.387996 -0.460602
v 0.334577 0.384309 -0.397772
v 0.001957 0.386797 -0.084248
v 0.049282 0.383110 -0.021418
v 0.285437 0.364713 -0.021418
v 0.332763 0.361026 -0.084248
v 0.049282 0.383110 -0.460602
v 0.001957 0.386797 -0.397772
v 0.332763 0.361026 -0.397772
v 0.285437 0.364713 -0.460602
vt 0.812728 0.670312
vt 0.832478 0.000439
vt 0.820811 0.000206
vt 0.847728 0.670312
vt 0.867478 0.001141
vt 0.855811 0.000907
vt 0.871061 0.670312
vt 0.890811 0.001609
vt 0.879144 0.001375
vt 0.894394 0.670312
vt 0.914144 0.002076
vt 0.902478 0.001842
vt 0.824394 0.670312
vt 0.844145 0.000673
vt 0.836061 0.670312
vt 0.859394 0.670312
vt 0.882727 0.670312
vt 0.932206 0.007331
vt 0.941041 0.510808
vt 0.941041 0.006362
vt 0.958670 0.001175
vt 0.967505 0.510808
vt 0.967505 0.000206
vt 0.976340 0.510808
vt 0.985154 0.003143
vt 0.976340 0.001070
vt 0.923370 0.510808
vt 0.923370 0.006466
vt 0.949855 0.510808
vt 0.949855 0.003768
vt 0.958670 0.510808
vt 0.914556 0.510808
vt 0.914556 0.004394
vt 0.510181 0.982145
vt 0.003141 0.990980
vt 0.510181 0.990980
vt 0.510181 0.938010
vt 0.003141 0.946846
vt 0.510181 0.946846
vt 0.003141 0.955681
vt 0.510181 0.964495
vt 0.510181 0.955681
vt 0.003141 0.973309
vt 0.510181 0.973310
vt 0.003141 0.999794
vt 0.510181 0.999794
vt 0.510181 0.929196
vt 0.003141 0.938010
vt 0.003141 0.964495
vt 0.710898 0.670312
vt 0.730650 0.000439
vt 0.718984 0.000206
vt 0.745897 0.670312
vt 0.765650 0.001141
vt 0.753984 0.000907
vt 0.769230 0.670312
vt 0.788983 0.001609
vt 0.777317 0.001375
vt 0.792564 0.670312
vt 0.812317 0.002077
vt 0.800650 0.001843
vt 0.722564 0.670312
vt 0.742317 0.000673
vt 0.734231 0.670312
vt 0.757564 0.670312
vt 0.780897 0.670312
vt 0.028029 0.722115
vt 0.000224 0.865487
vt 0.028048 0.865604
vt 0.115796 0.922379
vt 0.579094 0.900690
vt 0.119327 0.894088
vt 0.703665 0.870494
vt 0.674505 0.722031
vt 0.674841 0.870684
vt 0.582016 0.521963
vt 0.674502 0.694208
vt 0.635901 0.531966
vt 0.028025 0.694291
vt 0.070189 0.886422
vt 0.016414 0.893713
vt 0.062158 0.912925
vt 0.634895 0.890201
vt 0.585540 0.928785
vt 0.641340 0.918296
vt 0.686242 0.897158
vt 0.000206 0.102424
vt 0.026913 0.427109
vt 0.026914 0.094648
vt 0.120885 0.521551
vt 0.589806 0.493735
vt 0.120885 0.493735
vt 0.683778 0.427110
vt 0.710486 0.102425
vt 0.683779 0.094648
vt 0.804230 0.670312
vt 0.784149 0.678483
vt 0.791999 0.698564
vt 0.014706 0.452104
vt 0.108677 0.518730
vt 0.101340 0.008230
vt 0.120886 0.028022
vt 0.695986 0.452105
vt 0.609353 0.008231
vt 0.703325 0.074856
vt 0.589807 0.000206
vt 0.589807 0.028023
vt 0.905496 0.698798
vt 0.885745 0.690150
vt 0.906061 0.670312
vt 0.932206 0.510808
vt 0.985154 0.510808
vt 0.003141 0.982145
vt 0.003141 0.929196
vt 0.000206 0.721998
vt 0.578719 0.928599
vt 0.703330 0.721842
vt 0.120509 0.521963
vt 0.068724 0.528994
vt 0.028007 0.550802
vt 0.674502 0.550718
vt 0.646296 0.916676
vt 0.000206 0.434886
vt 0.589806 0.521552
vt 0.710486 0.434887
vt 0.812081 0.690714
vt 0.812314 0.679048
vt 0.783915 0.690150
vt 0.803666 0.698798
vt 0.007368 0.074856
vt 0.602014 0.518730
vt 0.120886 0.000206
vt 0.913911 0.690714
vt 0.914145 0.679047
vt 0.885979 0.678483
vt 0.893830 0.698564
vn -0.7642 0.5192 -0.3827
vn 0.7642 -0.5192 -0.3827
vn 0.3165 -0.2151 0.9239
vn -0.7642 0.5192 0.3827
vn -0.3166 0.2151 -0.9239
vn 0.3166 -0.2151 -0.9239
vn 0.7642 -0.5192 0.3827
vn -0.3166 0.2151 0.9239
vn -0.9223 -0.0534 -0.3827
vn 0.9223 0.0534 -0.3827
vn 0.3821 0.0221 0.9239
vn -0.9223 -0.0534 0.3827
vn -0.3821 -0.0221 -0.9239
vn 0.3821 0.0221 -0.9239
vn 0.9223 0.0534 0.3827
vn -0.3821 -0.0221 0.9239
vn -0.3165 0.2151 -0.9239
vn 0.3165 -0.2151 -0.9239
vn -0.3165 0.2151 0.9239
vn 0.0000 0.0000 1.0000
vn 0.5567 0.8307 0.0000
vn 0.0000 0.0000 -1.0000
vn 0.8203 -0.5702 0.0441
vn -0.5567 -0.8307 -0.0000
vn 0.4463 0.6661 0.5976
vn 0.5377 0.8024 -0.2588
vn -0.8302 0.5563 -0.0354
vn 0.4639 0.6924 -0.5526
vn 0.5471 0.8165 0.1846
vn 0.9970 -0.0777 -0.0000
vn 0.5620 0.8272 0.0000
vn 0.7955 -0.0620 0.6028
vn -0.7955 0.0620 0.6028
vn 0.7955 -0.0620 -0.6028
vn -0.7955 0.0620 -0.6028
vn -0.9970 0.0777 0.0000
vn 0.0777 0.9970 -0.0000
vn 0.3166 -0.2151 0.9239
vn 0.3820 0.0221 0.9239
vn 0.8307 -0.5567 0.0000
vn 0.8239 -0.5660 -0.0301
vn 0.8302 -0.5563 0.0354
vn 0.8295 -0.5558 -0.0550
vn -0.8239 0.5660 0.0300
vn -0.8307 0.5567 0.0000
vn -0.8203 0.5702 -0.0442
vn -0.8295 0.5558 0.0550
vn 0.5619 0.8272 0.0000
usemtl None
s off
f 11/1/1 2/2/1 3/3/1
f 16/4/2 7/5/2 8/6/2
f 14/7/3 5/8/3 6/9/3
f 12/10/4 3/11/4 4/12/4
f 10/13/5 1/14/5 2/2/5
f 9/15/6 8/6/6 1/14/6
f 15/16/7 6/9/7 7/5/7
f 13/17/8 4/12/8 5/8/8
f 19/18/9 26/19/9 18/20/9
f 24/21/10 31/22/10 23/23/10
f 30/24/11 21/25/11 22/26/11
f 28/27/12 19/18/12 20/28/12
f 18/20/13 25/29/13 17/30/13
f 17/30/14 32/31/14 24/21/14
f 31/22/15 22/26/15 23/23/15
f 29/32/16 20/28/16 21/33/16
f 35/34/9 42/35/9 34/36/9
f 40/37/10 47/38/10 39/39/10
f 46/40/11 37/41/11 38/42/11
f 44/43/12 35/34/12 36/44/12
f 34/36/13 41/45/13 33/46/13
f 33/47/14 48/48/14 40/37/14
f 47/38/15 38/42/15 39/39/15
f 45/49/16 36/44/16 37/41/16
f 59/50/1 50/51/1 51/52/1
f 64/53/2 55/54/2 56/55/2
f 62/56/3 53/57/3 54/58/3
f 60/59/4 51/60/4 52/61/4
f 58/62/17 49/63/17 50/51/17
f 57/64/18 56/55/18 49/63/18
f 63/65/7 54/58/7 55/54/7
f 61/66/19 52/61/19 53/57/19
f 65/67/20 72/68/20 67/69/20
f 73/70/21 70/71/21 66/72/21
f 76/73/22 68/74/22 69/75/22
f 75/76/23 74/77/23 78/78/23
f 68/74/24 71/79/24 65/67/24
f 79/80/25 72/81/25 80/82/25
f 77/83/26 75/84/26 78/85/26
f 65/67/27 67/69/27 79/80/27
f 77/83/28 76/86/28 69/75/28
f 79/80/29 73/70/29 66/72/29
f 90/87/20 84/88/20 81/89/20
f 92/90/30 88/91/30 83/92/30
f 87/93/22 93/94/22 86/95/22
f 59/96/31 61/97/31 63/98/31
f 83/92/32 91/99/32 92/100/32
f 89/101/33 81/89/33 82/102/33
f 88/91/34 96/103/34 87/93/34
f 94/104/35 86/95/35 93/105/35
f 94/106/36 82/102/36 85/107/36
f 16/108/31 12/10/31 14/109/31
f 82/102/37 81/89/37 83/92/37
f 11/1/1 10/13/1 2/2/1
f 16/4/2 15/16/2 7/5/2
f 14/7/38 13/17/38 5/8/38
f 12/10/4 11/110/4 3/11/4
f 10/13/5 9/15/5 1/14/5
f 9/15/6 16/4/6 8/6/6
f 15/16/7 14/7/7 6/9/7
f 13/17/8 12/10/8 4/12/8
f 19/18/9 27/111/9 26/19/9
f 24/21/10 32/31/10 31/22/10
f 30/24/39 29/112/39 21/25/39
f 28/27/12 27/111/12 19/18/12
f 18/20/13 26/19/13 25/29/13
f 17/30/14 25/29/14 32/31/14
f 31/22/15 30/24/15 22/26/15
f 29/32/16 28/27/16 20/28/16
f 35/34/9 43/113/9 42/35/9
f 40/37/10 48/48/10 47/38/10
f 46/40/11 45/49/11 37/41/11
f 44/43/12 43/113/12 35/34/12
f 34/36/13 42/35/13 41/45/13
f 33/47/14 41/114/14 48/48/14
f 47/38/15 46/40/15 38/42/15
f 45/49/16 44/43/16 36/44/16
f 59/50/1 58/62/1 50/51/1
f 64/53/2 63/65/2 55/54/2
f 62/56/38 61/66/38 53/57/38
f 60/59/4 59/96/4 51/60/4
f 58/62/17 57/64/17 49/63/17
f 57/64/6 64/53/6 56/55/6
f 63/65/7 62/56/7 54/58/7
f 61/66/19 60/59/19 52/61/19
f 65/67/20 71/115/20 72/68/20
f 73/70/21 75/116/21 70/71/21
f 76/73/22 74/117/22 68/74/22
f 75/76/40 73/118/40 71/79/40
f 73/118/41 80/119/41 71/79/41
f 80/119/42 72/120/42 71/79/42
f 71/79/40 74/77/40 75/76/40
f 74/77/43 76/121/43 78/78/43
f 68/74/24 74/77/24 71/79/24
f 79/80/25 67/69/25 72/81/25
f 77/83/26 70/71/26 75/84/26
f 79/80/44 66/72/44 65/67/44
f 66/72/45 70/71/45 65/67/45
f 70/71/46 77/83/46 68/74/46
f 77/83/47 69/75/47 68/74/47
f 68/74/45 65/67/45 70/71/45
f 77/83/28 78/122/28 76/86/28
f 79/80/29 80/82/29 73/70/29
f 90/87/20 91/123/20 84/88/20
f 92/90/30 95/124/30 88/91/30
f 87/93/22 96/125/22 93/94/22
f 57/126/31 58/127/31 59/96/31
f 59/96/31 60/59/31 61/97/31
f 61/97/31 62/128/31 63/98/31
f 63/98/48 64/129/48 57/126/48
f 57/126/31 59/96/31 63/98/31
f 83/92/32 84/88/32 91/99/32
f 89/101/33 90/130/33 81/89/33
f 88/91/34 95/131/34 96/103/34
f 94/104/35 85/107/35 86/95/35
f 94/106/36 89/132/36 82/102/36
f 9/133/31 10/134/31 16/108/31
f 10/134/31 11/110/31 12/10/31
f 12/10/31 13/135/31 14/109/31
f 14/109/31 15/136/31 16/108/31
f 10/134/31 12/10/31 16/108/31
f 81/89/37 84/88/37 83/92/37
f 83/92/37 88/91/37 82/102/37
f 88/91/37 87/93/37 85/107/37
f 87/93/37 86/95/37 85/107/37
f 85/107/37 82/102/37 88/91/37
