# Blender v2.79 (sub 0) OBJ File: 'CHAIR.blend'
# www.blender.org
mtllib CHAIR.mtl
o Circle.003
v -1.474671 -0.029003 -1.075038
v -1.495755 -0.016959 -1.064980
v -1.504488 -0.011970 -1.040699
v -1.495755 -0.016959 -1.016418
v -1.474671 -0.029003 -1.006360
v -1.453587 -0.041047 -1.016418
v -1.444854 -0.046036 -1.040699
v -1.453587 -0.041047 -1.064980
v 0.436719 3.317003 -1.075038
v 0.415635 3.329047 -1.064980
v 0.406902 3.334036 -1.040699
v 0.415635 3.329047 -1.016418
v 0.436719 3.317003 -1.006360
v 0.457802 3.304959 -1.016418
v 0.466535 3.299970 -1.040699
v 0.457802 3.304959 -1.064980
v 0.029405 0.092539 -1.075038
v 0.005347 0.089257 -1.064980
v -0.004619 0.087897 -1.040699
v 0.005347 0.089257 -1.016418
v 0.029405 0.092539 -1.006360
v 0.053463 0.095821 -1.016418
v 0.063429 0.097180 -1.040699
v 0.053463 0.095821 -1.064980
v -0.245310 2.106228 -1.075038
v -0.269368 2.102946 -1.064980
v -0.279333 2.101586 -1.040699
v -0.269368 2.102946 -1.016418
v -0.245310 2.106228 -1.006360
v -0.221251 2.109510 -1.016418
v -0.211286 2.110869 -1.040699
v -0.221251 2.109510 -1.064980
v 0.029405 0.092539 0.998764
v 0.005347 0.089257 1.008822
v -0.004619 0.087897 1.033103
v 0.005347 0.089257 1.057384
v 0.029405 0.092539 1.067442
v 0.053463 0.095821 1.057384
v 0.063429 0.097180 1.033103
v 0.053463 0.095821 1.008822
v -0.245310 2.106228 0.998764
v -0.269368 2.102946 1.008822
v -0.279333 2.101586 1.033103
v -0.269368 2.102946 1.057384
v -0.245310 2.106228 1.067442
v -0.221251 2.109510 1.057384
v -0.211286 2.110870 1.033103
v -0.221251 2.109510 1.008822
v -1.474671 -0.029003 0.998764
v -1.495755 -0.016959 1.008821
v -1.504488 -0.011970 1.033103
v -1.495755 -0.016959 1.057384
v -1.474671 -0.029003 1.067441
v -1.453587 -0.041047 1.057384
v -1.444854 -0.046036 1.033103
v -1.453587 -0.041047 1.008821
v 0.436719 3.317003 0.998764
v 0.415635 3.329047 1.008822
v 0.406902 3.334036 1.033103
v 0.415635 3.329047 1.057384
v 0.436719 3.317003 1.067442
v 0.457802 3.304959 1.057384
v 0.466535 3.299970 1.033103
v 0.457802 3.304959 1.008822
v 0.086242 2.753187 0.989081
v 0.446479 3.393277 0.706084
v 0.386339 3.286418 0.989081
v 0.086242 2.753187 -0.989080
v 0.386340 3.286418 -0.989080
v 0.446479 3.393277 -0.706082
v 0.160438 2.711430 0.989081
v 0.460535 3.244661 0.989081
v 0.520674 3.351521 0.706084
v 0.160438 2.711430 -0.989080
v 0.520674 3.351521 -0.706082
v 0.460535 3.244662 -0.989080
v 0.430538 3.351654 -0.870636
v 0.504734 3.309898 -0.870636
v 0.435731 3.365172 0.864506
v 0.509927 3.323416 0.864506
v -1.246673 1.818492 1.000000
v -1.462842 1.818492 0.713879
v 0.048182 1.818492 0.713879
v -0.167987 1.818492 1.000000
v -1.462842 1.818492 -0.713878
v -1.246673 1.818492 -1.000000
v -0.167987 1.818492 -1.000000
v 0.048182 1.818492 -0.713878
v -1.462842 1.712143 0.713878
v -1.246673 1.712143 1.000000
v -0.167987 1.712143 1.000000
v 0.048182 1.712143 0.713879
v -1.246673 1.712143 -1.000000
v -1.462842 1.712143 -0.713878
v 0.048182 1.712143 -0.713878
v -0.167987 1.712143 -1.000000
vt 0.832478 0.000439
vt 0.812728 0.670312
vt 0.820811 0.000206
vt 0.867478 0.001141
vt 0.847728 0.670312
vt 0.855811 0.000907
vt 0.890811 0.001609
vt 0.871061 0.670312
vt 0.879144 0.001375
vt 0.914144 0.002076
vt 0.894394 0.670312
vt 0.902478 0.001842
vt 0.844145 0.000673
vt 0.824394 0.670312
vt 0.836061 0.670312
vt 0.859394 0.670312
vt 0.882727 0.670312
vt 0.932206 0.007331
vt 0.941041 0.510808
vt 0.932206 0.510808
vt 0.958670 0.001175
vt 0.967505 0.510808
vt 0.958670 0.510808
vt 0.985154 0.003143
vt 0.976340 0.510808
vt 0.976340 0.001070
vt 0.923370 0.510808
vt 0.923370 0.006466
vt 0.941041 0.006362
vt 0.949855 0.510808
vt 0.949855 0.003768
vt 0.967505 0.000206
vt 0.914556 0.510808
vt 0.914556 0.004394
vt 0.510181 0.982145
vt 0.003141 0.990980
vt 0.003141 0.982145
vt 0.510181 0.938010
vt 0.003141 0.946846
vt 0.003141 0.938010
vt 0.510181 0.964495
vt 0.003141 0.955681
vt 0.510181 0.955681
vt 0.003141 0.973309
vt 0.510181 0.973310
vt 0.510181 0.990980
vt 0.003141 0.999794
vt 0.510181 0.929196
vt 0.003141 0.929196
vt 0.510181 0.946846
vt 0.003141 0.964495
vt 0.730650 0.000439
vt 0.710898 0.670312
vt 0.718984 0.000206
vt 0.765650 0.001141
vt 0.745897 0.670312
vt 0.753984 0.000907
vt 0.788983 0.001609
vt 0.769230 0.670312
vt 0.777317 0.001375
vt 0.812317 0.002077
vt 0.792564 0.670312
vt 0.800650 0.001843
vt 0.742317 0.000673
vt 0.722564 0.670312
vt 0.734231 0.670312
vt 0.757564 0.670312
vt 0.780897 0.670312
vt 0.028029 0.722115
vt 0.000224 0.865487
vt 0.000206 0.721998
vt 0.579094 0.900690
vt 0.115796 0.922379
vt 0.119327 0.894088
vt 0.674505 0.722031
vt 0.703665 0.870494
vt 0.674841 0.870684
vt 0.028025 0.694291
vt 0.028007 0.550802
vt 0.068724 0.528994
vt 0.070189 0.886422
vt 0.016414 0.893713
vt 0.028048 0.865604
vt 0.634895 0.890201
vt 0.585540 0.928785
vt 0.686242 0.897158
vt 0.026913 0.427109
vt 0.000206 0.102424
vt 0.026914 0.094648
vt 0.589806 0.493735
vt 0.120885 0.521551
vt 0.120885 0.493735
vt 0.683778 0.427110
vt 0.710486 0.102425
vt 0.710486 0.434887
vt 0.812081 0.690714
vt 0.791999 0.698564
vt 0.784149 0.678483
vt 0.014706 0.452104
vt 0.101340 0.008230
vt 0.007368 0.074856
vt 0.695986 0.452105
vt 0.683779 0.094648
vt 0.609353 0.008231
vt 0.703325 0.074856
vt 0.589807 0.028023
vt 0.120886 0.000206
vt 0.589807 0.000206
vt 0.906061 0.670312
vt 0.893830 0.698564
vt 0.985154 0.510808
vt 0.510181 0.999794
vt 0.804230 0.670312
vt 0.578719 0.928599
vt 0.703330 0.721842
vt 0.120509 0.521963
vt 0.582016 0.521963
vt 0.635901 0.531966
vt 0.674502 0.694208
vt 0.674502 0.550718
vt 0.062158 0.912925
vt 0.641340 0.918296
vt 0.646296 0.916676
vt 0.000206 0.434886
vt 0.589806 0.521552
vt 0.812314 0.679048
vt 0.803666 0.698798
vt 0.783915 0.690150
vt 0.108677 0.518730
vt 0.120886 0.028022
vt 0.602014 0.518730
vt 0.914145 0.679047
vt 0.913911 0.690714
vt 0.905496 0.698798
vt 0.885745 0.690150
vt 0.885979 0.678483
vn 0.8022 -0.4583 0.3827
vn -0.8022 0.4583 0.3827
vn -0.3323 0.1898 -0.9239
vn 0.8022 -0.4583 -0.3827
vn 0.3323 -0.1898 0.9239
vn -0.3323 0.1898 0.9239
vn -0.8022 0.4583 -0.3827
vn 0.3323 -0.1898 -0.9239
vn 0.9154 0.1249 0.3827
vn -0.9154 -0.1249 0.3827
vn -0.3792 -0.0517 -0.9239
vn 0.9154 0.1249 -0.3827
vn 0.3792 0.0517 0.9239
vn -0.3792 -0.0517 0.9239
vn -0.9154 -0.1249 -0.3827
vn 0.3792 0.0517 -0.9239
vn -0.0000 0.0000 -1.0000
vn -0.4905 -0.8715 0.0000
vn -0.0000 -0.0000 1.0000
vn -0.8709 0.4901 -0.0354
vn 0.4905 0.8715 0.0000
vn -0.3932 -0.6987 -0.5976
vn -0.4737 -0.8418 0.2588
vn 0.8621 -0.5047 0.0442
vn -0.4088 -0.7263 0.5526
vn -0.4820 -0.8565 -0.1847
vn -1.0000 0.0000 0.0000
vn -0.4960 -0.8683 0.0000
vn -0.7979 0.0000 -0.6028
vn 0.7979 0.0000 -0.6028
vn -0.7979 0.0000 0.6028
vn 0.7979 0.0000 0.6028
vn 1.0000 0.0000 0.0000
vn 0.0000 -1.0000 0.0000
vn -0.8653 0.5003 0.0300
vn -0.8715 0.4905 -0.0000
vn -0.8621 0.5047 -0.0441
vn -0.8701 0.4897 0.0550
vn 0.8715 -0.4905 0.0000
vn 0.8653 -0.5003 -0.0301
vn 0.8709 -0.4901 0.0354
vn 0.8701 -0.4897 -0.0550
vn -0.4820 -0.8565 -0.1846
usemtl chair.png
s off
f 2/1/1 11/2/1 3/3/1
f 7/4/2 16/5/2 8/6/2
f 5/7/3 14/8/3 6/9/3
f 3/10/4 12/11/4 4/12/4
f 1/13/5 10/14/5 2/1/5
f 8/6/6 9/15/6 1/13/6
f 6/9/7 15/16/7 7/4/7
f 4/12/8 13/17/8 5/7/8
f 19/18/9 26/19/9 27/20/9
f 24/21/10 31/22/10 32/23/10
f 21/24/11 30/25/11 22/26/11
f 19/18/12 28/27/12 20/28/12
f 18/29/13 25/30/13 26/19/13
f 17/31/14 32/23/14 25/30/14
f 22/26/15 31/22/15 23/32/15
f 20/28/16 29/33/16 21/34/16
f 35/35/9 42/36/9 43/37/9
f 40/38/10 47/39/10 48/40/10
f 37/41/11 46/42/11 38/43/11
f 35/35/12 44/44/12 36/45/12
f 34/46/13 41/47/13 42/36/13
f 33/48/14 48/40/14 41/49/14
f 38/43/15 47/39/15 39/50/15
f 36/45/16 45/51/16 37/41/16
f 50/52/1 59/53/1 51/54/1
f 55/55/2 64/56/2 56/57/2
f 53/58/3 62/59/3 54/60/3
f 51/61/4 60/62/4 52/63/4
f 49/64/5 58/65/5 50/52/5
f 56/57/6 57/66/6 49/64/6
f 54/60/7 63/67/7 55/55/7
f 52/63/8 61/68/8 53/58/8
f 65/69/17 72/70/17 71/71/17
f 70/72/18 73/73/18 66/74/18
f 68/75/19 76/76/19 69/77/19
f 71/78/20 72/79/20 80/80/20
f 71/78/21 68/75/21 65/69/21
f 79/81/22 72/82/22 67/83/22
f 77/84/23 75/85/23 70/72/23
f 70/72/24 68/75/24 77/84/24
f 76/86/25 77/84/25 69/77/25
f 73/73/26 79/81/26 66/74/26
f 84/87/17 90/88/17 81/89/17
f 88/90/27 92/91/27 83/92/27
f 87/93/19 93/94/19 96/95/19
f 57/96/28 63/97/28 61/98/28
f 83/92/29 91/99/29 84/87/29
f 89/100/30 81/89/30 90/101/30
f 96/102/31 88/90/31 87/93/31
f 86/103/32 94/104/32 93/105/32
f 85/106/33 89/107/33 94/108/33
f 12/11/28 11/109/28 15/110/28
f 88/90/34 83/92/34 85/106/34
f 2/1/1 10/14/1 11/2/1
f 7/4/2 15/16/2 16/5/2
f 5/7/3 13/17/3 14/8/3
f 3/10/4 11/109/4 12/11/4
f 1/13/5 9/15/5 10/14/5
f 8/6/6 16/5/6 9/15/6
f 6/9/7 14/8/7 15/16/7
f 4/12/8 12/11/8 13/17/8
f 19/18/9 18/29/9 26/19/9
f 24/21/10 23/32/10 31/22/10
f 21/24/11 29/111/11 30/25/11
f 19/18/12 27/20/12 28/27/12
f 18/29/13 17/31/13 25/30/13
f 17/31/14 24/21/14 32/23/14
f 22/26/15 30/25/15 31/22/15
f 20/28/16 28/27/16 29/33/16
f 35/35/9 34/46/9 42/36/9
f 40/38/10 39/50/10 47/39/10
f 37/41/11 45/51/11 46/42/11
f 35/35/12 43/37/12 44/44/12
f 34/46/13 33/112/13 41/47/13
f 33/48/14 40/38/14 48/40/14
f 38/43/15 46/42/15 47/39/15
f 36/45/16 44/44/16 45/51/16
f 50/52/1 58/65/1 59/53/1
f 55/55/2 63/67/2 64/56/2
f 53/58/3 61/68/3 62/59/3
f 51/61/4 59/113/4 60/62/4
f 49/64/5 57/66/5 58/65/5
f 56/57/6 64/56/6 57/66/6
f 54/60/7 62/59/7 63/67/7
f 52/63/8 60/62/8 61/68/8
f 65/69/17 67/83/17 72/70/17
f 70/72/18 75/114/18 73/73/18
f 68/75/19 74/115/19 76/76/19
f 80/80/35 73/116/35 71/78/35
f 73/116/36 75/117/36 71/78/36
f 75/117/37 78/118/37 74/119/37
f 78/118/38 76/120/38 74/119/38
f 74/119/36 71/78/36 75/117/36
f 71/78/21 74/119/21 68/75/21
f 79/81/22 80/121/22 72/82/22
f 77/84/23 78/122/23 75/85/23
f 70/72/39 66/74/39 65/69/39
f 66/74/40 79/81/40 65/69/40
f 79/81/41 67/83/41 65/69/41
f 65/69/39 68/75/39 70/72/39
f 68/75/42 69/77/42 77/84/42
f 76/86/25 78/123/25 77/84/25
f 73/73/43 80/121/43 79/81/43
f 84/87/17 91/124/17 90/88/17
f 88/90/27 95/125/27 92/91/27
f 87/93/19 86/103/19 93/94/19
f 59/113/28 58/126/28 57/96/28
f 57/96/28 64/127/28 63/97/28
f 63/97/28 62/128/28 61/98/28
f 61/98/28 60/62/28 59/113/28
f 59/113/28 57/96/28 61/98/28
f 83/92/29 92/129/29 91/99/29
f 89/100/30 82/130/30 81/89/30
f 96/102/31 95/131/31 88/90/31
f 86/103/32 85/106/32 94/104/32
f 85/106/33 82/130/33 89/107/33
f 11/109/28 10/132/28 9/133/28
f 9/133/28 16/134/28 11/109/28
f 16/134/28 15/110/28 11/109/28
f 15/110/28 14/135/28 13/136/28
f 13/136/28 12/11/28 15/110/28
f 83/92/34 84/87/34 81/89/34
f 81/89/34 82/130/34 83/92/34
f 82/130/34 85/106/34 83/92/34
f 85/106/34 86/103/34 87/93/34
f 87/93/34 88/90/34 85/106/34
