# Blender v2.79 (sub 0) OBJ File: 'GUN.blend'
# www.blender.org
mtllib GUN.mtl
o Plane
v -4.617163 2.992792 -0.013204
v -1.948705 4.945826 -0.013204
v -0.966376 5.690547 -0.013204
v -0.966376 4.945826 -0.013204
v -3.617162 2.992792 -0.013204
v -3.617162 5.690547 -0.013204
v -3.617162 4.945826 -0.013204
v -2.291769 5.690547 -0.013204
v -4.617163 5.407214 -0.013204
v -4.975262 5.440231 -0.175868
v -4.777834 5.695890 -0.175868
v -4.571873 4.996586 -0.175868
v -3.235403 4.641898 -0.175868
v -2.964015 4.787976 -0.175868
v -3.267907 5.033726 -0.175868
v -2.970905 5.033726 -0.175868
v -2.932860 4.151440 -0.175868
v -2.723933 4.412279 -0.175868
v -4.532024 5.158682 -0.175868
v -4.846510 5.298630 -0.175868
v -4.656631 5.484930 -0.175868
v -4.452827 5.740209 -0.175868
v -4.617163 2.992792 -0.683236
v -1.948705 4.945826 -0.683236
v -0.966376 5.690547 -0.683236
v -0.966376 4.945826 -0.683236
v -3.617162 2.992792 -0.683236
v -3.617162 5.690547 -0.683236
v -3.617162 4.945826 -0.683236
v -2.291769 5.690547 -0.683236
v -4.617163 5.407214 -0.683236
v -4.975262 5.440231 -0.550118
v -4.777834 5.695890 -0.550118
v -4.571873 4.996586 -0.550118
v -3.235403 4.641898 -0.550118
v -2.964015 4.787976 -0.550118
v -3.267907 5.033726 -0.550118
v -2.970905 5.033726 -0.550118
v -2.932860 4.151440 -0.550118
v -2.723933 4.412279 -0.550118
v -4.532024 5.158682 -0.550118
v -4.846510 5.298630 -0.550118
v -4.656631 5.484931 -0.550118
v -4.452827 5.740209 -0.550118
vt 0.148423 0.689909
vt 0.395682 0.689909
vt 0.344841 0.800274
vt 0.884329 0.269906
vt 0.832379 0.296292
vt 0.829689 0.250697
vt 0.746979 0.296292
vt 0.338908 0.420484
vt 0.278409 0.420484
vt 0.292209 0.399954
vt 0.367270 0.420484
vt 0.340405 0.381091
vt 0.375619 0.373348
vt 0.348076 0.333293
vt 0.148423 0.110592
vt 0.148423 0.400024
vt 0.000227 0.400024
vt 0.350675 0.900477
vt 0.154256 0.999773
vt 0.154256 0.900477
vt 0.899520 0.526679
vt 0.541713 0.625975
vt 0.541713 0.526679
vt 0.682495 0.900023
vt 0.792860 0.800727
vt 0.792860 0.900023
vt 0.289659 0.900023
vt 0.000227 0.800727
vt 0.289659 0.800727
vt 0.536917 0.900023
vt 0.682495 0.800727
vt 0.536917 0.800727
vt 0.541713 0.725725
vt 0.689909 0.626428
vt 0.689909 0.725725
vt 0.547093 0.900477
vt 0.350675 0.999773
vt 0.000227 0.999773
vt 0.000227 0.900477
vt 0.829689 0.397350
vt 0.832379 0.351755
vt 0.884329 0.378141
vt 0.763623 0.398401
vt 0.746979 0.351755
vt 0.338908 0.475946
vt 0.340404 0.515340
vt 0.292209 0.496476
vt 0.367270 0.475946
vt 0.375619 0.523082
vt 0.348076 0.563137
vt 0.415140 0.420484
vt 0.463750 0.420484
vt 0.463750 0.475947
vt 0.415140 0.475947
vt 0.697452 0.296292
vt 0.593468 0.781640
vt 0.593468 0.726178
vt 0.641877 0.726178
vt 0.697452 0.351755
vt 0.631378 0.351755
vt 0.890646 0.296292
vt 0.890646 0.351755
vt 0.541713 0.781640
vt 0.541713 0.726178
vt 0.631378 0.296292
vt 0.594945 0.351755
vt 0.541259 0.689909
vt 0.541259 0.800274
vt 0.148423 0.800274
vt 0.000227 0.758285
vt 0.000227 0.400477
vt 0.148423 0.400477
vt 0.861221 0.232446
vt 0.763623 0.249646
vt 0.344841 0.000227
vt 0.541259 0.000227
vt 0.395682 0.110592
vt 0.541259 0.110592
vt 0.148423 0.000227
vt 0.000227 0.042216
vt 0.899520 0.625975
vt 0.000227 0.900024
vt 0.541713 0.626428
vt 0.547093 0.999773
vt 0.861221 0.415601
vt 0.278409 0.475946
vt 0.641877 0.781640
vt 0.594945 0.296292
vn 0.0000 -0.0000 1.0000
vn 0.0000 -0.0000 -1.0000
vn 0.0000 1.0000 0.0000
vn -1.0000 0.0000 0.0000
vn 1.0000 0.0000 0.0000
vn 0.0000 -1.0000 0.0000
vn -0.2726 0.9621 0.0000
vn -0.1351 0.9908 0.0000
vn -0.7915 0.6112 0.0000
vn 0.7805 -0.6252 0.0000
vn 0.7815 -0.6239 0.0000
vn -0.8511 -0.5250 0.0000
vn -0.7399 -0.6727 0.0000
vn 0.8426 0.5385 0.0000
vn -0.9966 -0.0827 0.0000
vn 0.9342 0.3568 0.0000
vn 0.9996 0.0280 0.0000
usemtl gun.png
s off
f 7/1/1 2/2/1 8/3/1
f 15/4/1 13/5/1 14/6/1
f 14/6/1 13/5/1 17/7/1
f 20/8/1 12/9/1 19/10/1
f 10/11/1 20/8/1 21/12/1
f 11/13/1 21/12/1 22/14/1
f 29/15/2 27/16/2 23/17/2
f 8/18/3 28/19/3 6/20/3
f 9/21/4 23/22/4 1/23/4
f 4/24/5 25/25/5 3/26/5
f 7/27/5 27/28/5 29/29/5
f 2/30/6 26/31/6 4/24/6
f 7/27/6 24/32/6 2/30/6
f 1/33/6 27/34/6 5/35/6
f 3/36/3 30/37/3 8/18/3
f 6/20/7 31/38/7 9/39/7
f 36/40/2 35/41/2 37/42/2
f 36/40/2 40/43/2 39/44/2
f 42/45/2 43/46/2 41/47/2
f 32/48/2 33/49/2 43/46/2
f 33/49/2 44/50/2 43/46/2
f 11/51/8 22/52/8 44/53/8
f 10/11/9 11/51/9 33/54/9
f 18/55/10 17/7/10 39/44/10
f 21/56/11 43/57/11 44/58/11
f 17/7/12 13/5/12 35/41/12
f 12/9/13 20/8/13 42/45/13
f 18/55/14 40/59/14 36/60/14
f 13/5/15 15/61/15 37/62/15
f 20/8/13 10/11/13 32/48/13
f 19/63/16 41/64/16 43/57/16
f 14/65/17 36/60/17 38/66/17
f 4/67/1 3/68/1 2/2/1
f 3/68/1 8/3/1 2/2/1
f 8/3/1 6/69/1 7/1/1
f 6/69/1 9/70/1 7/1/1
f 9/70/1 1/71/1 7/1/1
f 1/71/1 5/72/1 7/1/1
f 15/4/1 14/6/1 16/73/1
f 14/6/1 17/7/1 18/74/1
f 20/8/1 19/10/1 21/12/1
f 10/11/1 21/12/1 11/13/1
f 30/75/2 25/76/2 24/77/2
f 25/76/2 26/78/2 24/77/2
f 24/77/2 29/15/2 30/75/2
f 30/75/2 29/15/2 28/79/2
f 23/17/2 31/80/2 29/15/2
f 31/80/2 28/79/2 29/15/2
f 8/18/3 30/37/3 28/19/3
f 9/21/4 31/81/4 23/22/4
f 4/24/5 26/31/5 25/25/5
f 7/27/5 5/82/5 27/28/5
f 2/30/6 24/32/6 26/31/6
f 7/27/6 29/29/6 24/32/6
f 1/33/6 23/83/6 27/34/6
f 3/36/3 25/84/3 30/37/3
f 6/20/7 28/19/7 31/38/7
f 36/40/2 37/42/2 38/85/2
f 36/40/2 39/44/2 35/41/2
f 42/45/2 41/47/2 34/86/2
f 32/48/2 43/46/2 42/45/2
f 11/51/8 44/53/8 33/54/8
f 10/11/9 33/54/9 32/48/9
f 18/55/10 39/44/10 40/59/10
f 21/56/11 44/58/11 22/87/11
f 17/7/12 35/41/12 39/44/12
f 12/9/13 42/45/13 34/86/13
f 18/55/14 36/60/14 14/65/14
f 13/5/15 37/62/15 35/41/15
f 20/8/13 32/48/13 42/45/13
f 19/63/16 43/57/16 21/56/16
f 14/65/17 38/66/17 16/88/17
